<svg style="width: 420px; height: 420px;" id="viewport" version="1.1" xmlns="http://www.w3.org/2000/svg" xmlns:xlink="http://www.w3.org/1999/xlink">
              <defs>
                <style type="text/css">
                  .axis path,
                  .axis line {
                  fill: none;
                  stroke: #000;
                  shape-rendering: crispEdges;
                  }

                  .axis text {
                  font-size: 10px;
                  }

                  .dot {
                  stroke: #000;
                  opacity: 0.7;
                  }
                </style>
              </defs>
            <g transform="translate(40,20)"><g transform="translate(0,370)" class="x axis" id="xAxis"><g transform="translate(0,0)" style="opacity: 1;" class="tick major"><line x2="0" y2="6"/><text style="text-anchor: middle;" dy=".71em" x="0" y="9">0.0</text></g><g transform="translate(60,0)" style="opacity: 1;" class="tick major"><line x2="0" y2="6"/><text style="text-anchor: middle;" dy=".71em" x="0" y="9">0.5</text></g><g transform="translate(120,0)" style="opacity: 1;" class="tick major"><line x2="0" y2="6"/><text style="text-anchor: middle;" dy=".71em" x="0" y="9">1.0</text></g><g transform="translate(180,0)" style="opacity: 1;" class="tick major"><line x2="0" y2="6"/><text x="0" style="text-anchor: middle;" dy=".71em" y="9">1.5</text></g><g transform="translate(240,0)" style="opacity: 1;" class="tick major"><line x2="0" y2="6"/><text x="0" style="text-anchor: middle;" dy=".71em" y="9">2.0</text></g><g transform="translate(300,0)" style="opacity: 1;" class="tick major"><line x2="0" y2="6"/><text x="0" style="text-anchor: middle;" dy=".71em" y="9">2.5</text></g><g transform="translate(360,0)" style="opacity: 1;" class="tick major"><line x2="0" y2="6"/><text x="0" style="text-anchor: middle;" dy=".71em" y="9">3.0</text></g><path d="M0,6V0H360V6" class="domain"/><text style="text-anchor: end;" y="-6" x="360" class="label">X</text></g><g class="y axis" id="yAxis"><g transform="translate(0,370)" style="opacity: 1;" class="tick major"><line y2="0" x2="-6"/><text style="text-anchor: end;" dy=".32em" y="0" x="-9">0</text></g><g transform="translate(0,336.3636474609375)" style="opacity: 1;" class="tick major"><line y2="0" x2="-6"/><text style="text-anchor: end;" dy=".32em" y="0" x="-9">1</text></g><g transform="translate(0,302.7272644042969)" style="opacity: 1;" class="tick major"><line y2="0" x2="-6"/><text y="0" style="text-anchor: end;" dy=".32em" x="-9">2</text></g><g transform="translate(0,269.0909118652344)" style="opacity: 1;" class="tick major"><line y2="0" x2="-6"/><text y="0" style="text-anchor: end;" dy=".32em" x="-9">3</text></g><g transform="translate(0,235.4545440673828)" style="opacity: 1;" class="tick major"><line y2="0" x2="-6"/><text y="0" style="text-anchor: end;" dy=".32em" x="-9">4</text></g><g transform="translate(0,201.81817626953125)" style="opacity: 1;" class="tick major"><line y2="0" x2="-6"/><text y="0" style="text-anchor: end;" dy=".32em" x="-9">5</text></g><g transform="translate(0,168.18182373046875)" style="opacity: 1;" class="tick major"><line y2="0" x2="-6"/><text y="0" style="text-anchor: end;" dy=".32em" x="-9">6</text></g><g transform="translate(0,134.5454559326172)" style="opacity: 1;" class="tick major"><line y2="0" x2="-6"/><text y="0" style="text-anchor: end;" dy=".32em" x="-9">7</text></g><g transform="translate(0,100.90908813476562)" style="opacity: 1;" class="tick major"><line y2="0" x2="-6"/><text y="0" style="text-anchor: end;" dy=".32em" x="-9">8</text></g><g transform="translate(0,67.2727279663086)" style="opacity: 1;" class="tick major"><line y2="0" x2="-6"/><text y="0" style="text-anchor: end;" dy=".32em" x="-9">9</text></g><g transform="translate(0,33.6363639831543)" style="opacity: 1;" class="tick major"><line y2="0" x2="-6"/><text y="0" style="text-anchor: end;" dy=".32em" x="-9">10</text></g><g transform="translate(0,0)" style="opacity: 1;" class="tick major"><line y2="0" x2="-6"/><text y="0" style="text-anchor: end;" dy=".32em" x="-9">11</text></g><path d="M-6,0H0V370H-6" class="domain"/><text style="text-anchor: end;" dy=".71em" y="6" transform="rotate(-90)" class="label">Y</text></g><path style="opacity: 0.8; fill: rgb(31, 119, 180);" d="M0,-4.653024295510498L5.37284965911771,4.653024295510498 -5.37284965911771,4.653024295510498Z" transform="translate(120,336.3636474609375)" class="dot"/><path style="opacity: 0.8; fill: rgb(31, 119, 180);" d="M0,-4.653024295510498L5.37284965911771,4.653024295510498 -5.37284965911771,4.653024295510498Z" transform="translate(120,302.7272644042969)" class="dot"/><path style="opacity: 0.8; fill: rgb(31, 119, 180);" d="M0,-4.653024295510498L5.37284965911771,4.653024295510498 -5.37284965911771,4.653024295510498Z" transform="translate(120,269.0909118652344)" class="dot"/><path style="opacity: 0.8; fill: rgb(31, 119, 180);" d="M0,-4.653024295510498L5.37284965911771,4.653024295510498 -5.37284965911771,4.653024295510498Z" transform="translate(120,235.4545440673828)" class="dot"/><path style="opacity: 0.8; fill: rgb(31, 119, 180);" d="M0,-4.653024295510498L5.37284965911771,4.653024295510498 -5.37284965911771,4.653024295510498Z" transform="translate(120,201.81817626953125)" class="dot"/><path style="opacity: 0.8; fill: rgb(31, 119, 180);" d="M0,-4.653024295510498L5.37284965911771,4.653024295510498 -5.37284965911771,4.653024295510498Z" transform="translate(120,168.18182373046875)" class="dot"/><path style="opacity: 0.8; fill: rgb(31, 119, 180);" d="M0,-4.653024295510498L5.37284965911771,4.653024295510498 -5.37284965911771,4.653024295510498Z" transform="translate(120,134.5454559326172)" class="dot"/><path style="opacity: 0.8; fill: rgb(31, 119, 180);" d="M0,-4.653024295510498L5.37284965911771,4.653024295510498 -5.37284965911771,4.653024295510498Z" transform="translate(120,100.90908813476562)" class="dot"/><path style="opacity: 0.8; fill: rgb(31, 119, 180);" d="M0,-4.653024295510498L5.37284965911771,4.653024295510498 -5.37284965911771,4.653024295510498Z" transform="translate(120,67.2727279663086)" class="dot"/><path style="opacity: 0.8; fill: rgb(31, 119, 180);" d="M0,3.989422804014327A3.989422804014327,3.989422804014327 0 1,1 0,-3.989422804014327A3.989422804014327,3.989422804014327 0 1,1 0,3.989422804014327Z" transform="translate(120,319.5454406738281)" class="dot"/><path style="opacity: 0.8; fill: rgb(31, 119, 180);" d="M0,3.989422804014327A3.989422804014327,3.989422804014327 0 1,1 0,-3.989422804014327A3.989422804014327,3.989422804014327 0 1,1 0,3.989422804014327Z" transform="translate(120,285.9090881347656)" class="dot"/><path style="opacity: 0.8; fill: rgb(31, 119, 180);" d="M0,3.989422804014327A3.989422804014327,3.989422804014327 0 1,1 0,-3.989422804014327A3.989422804014327,3.989422804014327 0 1,1 0,3.989422804014327Z" transform="translate(120,252.27272033691406)" class="dot"/><path style="opacity: 0.8; fill: rgb(31, 119, 180);" d="M0,3.989422804014327A3.989422804014327,3.989422804014327 0 1,1 0,-3.989422804014327A3.989422804014327,3.989422804014327 0 1,1 0,3.989422804014327Z" transform="translate(120,218.63636779785156)" class="dot"/><path style="opacity: 0.8; fill: rgb(31, 119, 180);" d="M0,3.989422804014327A3.989422804014327,3.989422804014327 0 1,1 0,-3.989422804014327A3.989422804014327,3.989422804014327 0 1,1 0,3.989422804014327Z" transform="translate(120,185)" class="dot"/><path style="opacity: 0.8; fill: rgb(31, 119, 180);" d="M0,3.989422804014327A3.989422804014327,3.989422804014327 0 1,1 0,-3.989422804014327A3.989422804014327,3.989422804014327 0 1,1 0,3.989422804014327Z" transform="translate(120,151.36363220214844)" class="dot"/><path style="opacity: 0.8; fill: rgb(31, 119, 180);" d="M0,3.989422804014327A3.989422804014327,3.989422804014327 0 1,1 0,-3.989422804014327A3.989422804014327,3.989422804014327 0 1,1 0,3.989422804014327Z" transform="translate(120,117.7272720336914)" class="dot"/><path style="opacity: 0.8; fill: rgb(31, 119, 180);" d="M0,3.989422804014327A3.989422804014327,3.989422804014327 0 1,1 0,-3.989422804014327A3.989422804014327,3.989422804014327 0 1,1 0,3.989422804014327Z" transform="translate(120,84.09091186523438)" class="dot"/><path style="opacity: 0.8; fill: rgb(31, 119, 180);" d="M0,3.989422804014327A3.989422804014327,3.989422804014327 0 1,1 0,-3.989422804014327A3.989422804014327,3.989422804014327 0 1,1 0,3.989422804014327Z" transform="translate(120,50.45454406738281)" class="dot"/><path style="opacity: 0.8; fill: rgb(255, 127, 14);" d="M0,-4.653024295510498L5.37284965911771,4.653024295510498 -5.37284965911771,4.653024295510498Z" transform="translate(240,336.3636474609375)" class="dot"/><path style="opacity: 0.8; fill: rgb(255, 127, 14);" d="M0,-4.653024295510498L5.37284965911771,4.653024295510498 -5.37284965911771,4.653024295510498Z" transform="translate(240,302.7272644042969)" class="dot"/><path style="opacity: 0.8; fill: rgb(255, 127, 14);" d="M0,-4.653024295510498L5.37284965911771,4.653024295510498 -5.37284965911771,4.653024295510498Z" transform="translate(240,269.0909118652344)" class="dot"/><path style="opacity: 0.8; fill: rgb(255, 127, 14);" d="M0,-4.653024295510498L5.37284965911771,4.653024295510498 -5.37284965911771,4.653024295510498Z" transform="translate(240,235.4545440673828)" class="dot"/><path style="opacity: 0.8; fill: rgb(255, 127, 14);" d="M0,-4.653024295510498L5.37284965911771,4.653024295510498 -5.37284965911771,4.653024295510498Z" transform="translate(240,201.81817626953125)" class="dot"/><path style="opacity: 0.8; fill: rgb(255, 127, 14);" d="M0,-4.653024295510498L5.37284965911771,4.653024295510498 -5.37284965911771,4.653024295510498Z" transform="translate(240,168.18182373046875)" class="dot"/><path style="opacity: 0.8; fill: rgb(255, 127, 14);" d="M0,-4.653024295510498L5.37284965911771,4.653024295510498 -5.37284965911771,4.653024295510498Z" transform="translate(240,134.5454559326172)" class="dot"/><path style="opacity: 0.8; fill: rgb(255, 127, 14);" d="M0,-4.653024295510498L5.37284965911771,4.653024295510498 -5.37284965911771,4.653024295510498Z" transform="translate(240,100.90908813476562)" class="dot"/><path style="opacity: 0.8; fill: rgb(255, 127, 14);" d="M0,-4.653024295510498L5.37284965911771,4.653024295510498 -5.37284965911771,4.653024295510498Z" transform="translate(240,67.2727279663086)" class="dot"/><path style="opacity: 0.8; fill: rgb(255, 127, 14);" d="M0,3.989422804014327A3.989422804014327,3.989422804014327 0 1,1 0,-3.989422804014327A3.989422804014327,3.989422804014327 0 1,1 0,3.989422804014327Z" transform="translate(240,319.5454406738281)" class="dot"/><path style="opacity: 0.8; fill: rgb(255, 127, 14);" d="M0,3.989422804014327A3.989422804014327,3.989422804014327 0 1,1 0,-3.989422804014327A3.989422804014327,3.989422804014327 0 1,1 0,3.989422804014327Z" transform="translate(240,285.9090881347656)" class="dot"/><path style="opacity: 0.8; fill: rgb(255, 127, 14);" d="M0,3.989422804014327A3.989422804014327,3.989422804014327 0 1,1 0,-3.989422804014327A3.989422804014327,3.989422804014327 0 1,1 0,3.989422804014327Z" transform="translate(240,252.27272033691406)" class="dot"/><path style="opacity: 0.8; fill: rgb(255, 127, 14);" d="M0,3.989422804014327A3.989422804014327,3.989422804014327 0 1,1 0,-3.989422804014327A3.989422804014327,3.989422804014327 0 1,1 0,3.989422804014327Z" transform="translate(240,218.63636779785156)" class="dot"/><path style="opacity: 0.8; fill: rgb(255, 127, 14);" d="M0,3.989422804014327A3.989422804014327,3.989422804014327 0 1,1 0,-3.989422804014327A3.989422804014327,3.989422804014327 0 1,1 0,3.989422804014327Z" transform="translate(240,185)" class="dot"/><path style="opacity: 0.8; fill: rgb(255, 127, 14);" d="M0,3.989422804014327A3.989422804014327,3.989422804014327 0 1,1 0,-3.989422804014327A3.989422804014327,3.989422804014327 0 1,1 0,3.989422804014327Z" transform="translate(240,151.36363220214844)" class="dot"/><path style="opacity: 0.8; fill: rgb(255, 127, 14);" d="M0,3.989422804014327A3.989422804014327,3.989422804014327 0 1,1 0,-3.989422804014327A3.989422804014327,3.989422804014327 0 1,1 0,3.989422804014327Z" transform="translate(240,117.7272720336914)" class="dot"/><path style="opacity: 0.8; fill: rgb(255, 127, 14);" d="M0,3.989422804014327A3.989422804014327,3.989422804014327 0 1,1 0,-3.989422804014327A3.989422804014327,3.989422804014327 0 1,1 0,3.989422804014327Z" transform="translate(240,84.09091186523438)" class="dot"/><path style="opacity: 0.8; fill: rgb(255, 127, 14);" d="M0,3.989422804014327A3.989422804014327,3.989422804014327 0 1,1 0,-3.989422804014327A3.989422804014327,3.989422804014327 0 1,1 0,3.989422804014327Z" transform="translate(240,50.45454406738281)" class="dot"/></g></svg>